<svg xmlns="http://www.w3.org/2000/svg" fill="none" viewBox="0 0 200 200" width="400" height="400" class="coolshapes ellipse-8 "><g clip-path="url(#cs_clip_1_ellipse-8)"><mask id="cs_mask_1_ellipse-8" style="mask-type:alpha" width="200" height="200" x="0" y="0" maskUnits="userSpaceOnUse"><path fill="#000" d="M139 39c0 21.54-17.461 39-39 39-21.54 0-39-17.46-39-39S78.46 0 100 0c21.539 0 39 17.46 39 39zM139 161c0 21.539-17.461 39-39 39-21.54 0-39-17.461-39-39s17.46-39 39-39c21.539 0 39 17.461 39 39zM161 139c-21.539 0-39-17.461-39-39 0-21.54 17.461-39 39-39s39 17.46 39 39c0 21.539-17.461 39-39 39zM39 139c-21.54 0-39-17.461-39-39 0-21.54 17.46-39 39-39s39 17.46 39 39c0 21.539-17.46 39-39 39z"></path></mask><g mask="url(#cs_mask_1_ellipse-8)"><path fill="#000" d="M200 0H0v200h200V0z"></path><path fill="url(#paint0_linear_748_4745)" fill-opacity="0.55" d="M200 0H0v200h200V0z"></path></g></g></svg>
